<svg xmlns="http://www.w3.org/2000/svg" viewBox="0 0 40.7 33.08"><defs><style>.cls-1{fill:#cacaca;}</style></defs><title>Asset 1</title><g id="Layer_2" data-name="Layer 2"><g id="Layer_1-2" data-name="Layer 1"><path class="cls-1" d="M-31,762.32a23.63,23.63,0,0,0,12.8,3.76c15.5,0,24.26-13.1,23.73-24.84a17,17,0,0,0,4.17-4.33,16.5,16.5,0,0,1-4.8,1.32,8.32,8.32,0,0,0,3.67-4.62,16.76,16.76,0,0,1-5.3,2A8.3,8.3,0,0,0-2.82,733,8.36,8.36,0,0,0-11,743.25a23.71,23.71,0,0,1-17.21-8.72,8.37,8.37,0,0,0,2.59,11.15,8.39,8.39,0,0,1-3.79-1,8.36,8.36,0,0,0,6.7,8.29,8.35,8.35,0,0,1-3.77.15,8.37,8.37,0,0,0,7.8,5.8A16.75,16.75,0,0,1-31,762.32Z" transform="translate(31 -733)"/></g></g></svg>